<?xml version="1.0" standalone="no"?>
<!DOCTYPE svg PUBLIC "-//W3C//DTD SVG 20010904//EN"
 "http://www.w3.org/TR/2001/REC-SVG-20010904/DTD/svg10.dtd">
<svg version="1.0" xmlns="http://www.w3.org/2000/svg"
 width="512.000000pt" height="512.000000pt" viewBox="0 0 512.000000 512.000000"
 preserveAspectRatio="xMidYMid meet">
<metadata>
Created by potrace 1.11, written by Peter Selinger 2001-2013
</metadata>
<g transform="translate(0.000000,512.000000) scale(0.100000,-0.100000)"
fill="#000000" stroke="none">
<path d="M1748 4345 c-2 -1 -46 -5 -98 -8 -52 -3 -104 -8 -115 -10 -11 -3 -40
-8 -65 -12 -200 -31 -459 -133 -643 -251 -207 -134 -392 -317 -535 -530 -113
-167 -232 -460 -258 -632 -3 -20 -7 -44 -10 -52 -18 -63 -25 -379 -11 -498 63
-533 370 -1015 831 -1307 67 -43 224 -121 306 -153 70 -27 257 -79 313 -87 23
-3 53 -8 67 -10 14 -3 48 -8 75 -11 28 -4 778 -7 1667 -8 l1618 -2 102 166
c56 91 108 175 115 187 l14 21 -1083 1 c-596 0 -1101 0 -1122 1 l-40 0 35 25
c52 39 195 182 259 260 203 248 340 565 385 890 17 124 13 395 -8 520 -39 231
-118 445 -238 643 -42 68 -138 199 -174 238 -11 11 -39 41 -61 65 -23 24 -63
65 -90 90 -53 49 -236 189 -248 189 -4 0 -26 13 -49 28 -45 30 -205 107 -297
142 -111 42 -312 86 -435 95 -117 9 -203 13 -207 10z m322 -149 c591 -109
1062 -502 1273 -1061 33 -87 74 -242 83 -315 3 -30 10 -81 14 -114 17 -144 -3
-392 -45 -556 -136 -531 -538 -971 -1053 -1154 -76 -27 -205 -62 -263 -71 -19
-3 -59 -9 -89 -14 -59 -10 -386 -8 -435 3 -16 3 -66 13 -110 22 -411 80 -793
339 -1043 705 -108 159 -216 423 -247 604 -23 132 -28 193 -27 325 3 750 497
1391 1229 1594 87 24 120 30 218 42 28 4 52 8 54 10 11 9 368 -6 441 -20z
m853 -3109 c-26 -30 -33 -32 -90 -32 -35 0 -63 2 -63 3 0 2 9 17 20 32 18 26
28 29 83 32 34 2 66 2 70 0 4 -2 -5 -18 -20 -35z m317 27 c0 -6 -11 -21 -25
-34 -21 -20 -37 -24 -85 -25 -33 -1 -60 2 -60 5 0 14 46 58 64 62 42 7 106 3
106 -8z m315 5 c2 -3 -6 -18 -19 -33 -20 -26 -29 -29 -85 -30 -34 -1 -64 1
-66 4 -6 10 47 58 69 62 25 4 95 2 101 -3z m305 1 c0 -3 -11 -18 -25 -34 -23
-27 -32 -30 -90 -31 -36 0 -65 2 -65 5 0 3 13 19 28 35 26 27 34 30 90 30 34
0 62 -2 62 -5z m283 -4 c-1 -4 -11 -18 -22 -32 -18 -23 -29 -26 -86 -28 -36
-1 -65 0 -65 2 0 3 11 19 24 36 22 29 27 31 87 30 35 -1 63 -4 62 -8z m277 6
c0 -2 -12 -18 -26 -36 -23 -27 -34 -31 -78 -32 -28 0 -56 2 -63 5 -17 9 29 59
58 63 32 4 109 4 109 0z m294 -3 c3 -3 -7 -19 -22 -35 -25 -27 -33 -30 -87
-29 -33 0 -60 3 -60 5 0 14 43 58 60 61 26 6 104 4 109 -2z m301 -1 c2 -2 -8
-16 -22 -32 -21 -25 -32 -29 -84 -31 -33 -1 -61 1 -64 5 -2 3 8 20 23 36 25
27 32 30 86 28 32 -2 59 -4 61 -6z m-1290 -80 c3 -3 -12 -32 -35 -64 l-41 -59
-385 0 c-211 0 -384 2 -384 4 0 14 77 121 89 123 28 6 751 1 756 -4z m1087 -7
c-1 -7 -18 -36 -37 -64 l-35 -52 -389 0 c-261 0 -387 3 -383 10 3 5 22 35 42
65 l37 55 384 -1 c294 -1 383 -4 381 -13z m-2122 -160 c0 -3 -11 -18 -24 -33
-20 -23 -32 -27 -82 -28 -89 -2 -87 -3 -58 34 26 33 30 34 96 34 37 0 68 -3
68 -7z m320 -1 c0 -3 -14 -19 -30 -35 -30 -29 -46 -32 -148 -26 -8 1 -2 14 15
35 26 34 29 35 95 34 37 -1 68 -4 68 -8z m330 0 c0 -5 -10 -20 -22 -34 -20
-22 -32 -25 -88 -27 -71 -2 -77 6 -38 48 17 19 31 22 84 22 35 -1 64 -5 64 -9z
m303 -25 c-16 -19 -32 -35 -38 -36 -66 -4 -118 -3 -121 3 -3 4 7 21 22 37 24
27 31 30 95 30 l69 0 -27 -34z m321 27 c2 -4 -6 -20 -19 -36 -21 -27 -27 -29
-91 -27 -37 1 -69 3 -71 4 -1 2 10 17 26 34 25 28 34 31 89 32 34 0 63 -3 66
-7z m296 0 c0 -4 -11 -19 -25 -34 -20 -24 -32 -28 -89 -30 -36 -1 -67 0 -70 3
-3 2 8 19 24 36 28 29 35 32 95 32 36 0 65 -3 65 -7z m320 0 c0 -4 -11 -19
-25 -34 -20 -24 -32 -28 -89 -30 -36 -1 -67 0 -70 3 -3 2 8 19 25 36 27 30 34
32 94 32 36 -1 65 -4 65 -7z m320 -1 c0 -3 -11 -18 -24 -33 -23 -26 -55 -32
-144 -29 l-23 1 26 34 c25 33 28 34 95 33 39 0 70 -3 70 -6z"/>
<path d="M1660 3964 c-113 -14 -255 -51 -282 -74 -27 -21 -26 -53 4 -130 70
-182 152 -389 165 -418 20 -42 46 -47 135 -27 40 9 106 16 148 16 81 -1 85 -1
178 -26 56 -14 67 -14 85 -2 24 15 237 496 237 533 0 30 -26 49 -95 73 -184
62 -379 80 -575 55z"/>
<path d="M800 3553 c-154 -156 -261 -331 -324 -530 -35 -114 -42 -175 -22
-196 16 -15 75 -30 166 -42 25 -3 83 -12 130 -20 47 -7 106 -16 132 -20 26 -3
67 -9 91 -14 67 -12 89 4 112 81 31 102 81 191 155 272 40 43 70 85 70 97 0
21 -293 427 -332 462 -41 35 -65 23 -178 -90z"/>
<path d="M2588 3472 c-192 -237 -245 -307 -251 -330 -4 -18 7 -37 53 -88 33
-36 62 -74 65 -84 4 -11 10 -20 14 -20 12 0 58 -107 81 -186 21 -75 44 -97 92
-89 13 2 50 6 83 10 33 3 94 10 135 15 77 9 123 15 220 25 121 14 133 34 101
169 -58 244 -193 482 -369 649 -92 87 -98 85 -224 -71z"/>
<path d="M1735 2867 c-59 -15 -139 -70 -173 -119 -145 -210 2 -493 254 -492
182 2 319 150 307 334 -12 187 -203 323 -388 277z"/>
<path d="M917 2444 c-1 -2 -27 -6 -57 -9 -101 -10 -155 -16 -180 -20 -14 -2
-52 -6 -85 -10 -127 -12 -150 -17 -168 -38 -14 -17 -17 -30 -12 -57 4 -19 9
-48 12 -65 3 -16 20 -77 39 -134 61 -187 172 -367 313 -507 80 -80 108 -94
140 -72 38 27 359 438 356 456 -2 9 -4 20 -4 24 -1 4 -27 37 -59 72 -67 74
-124 177 -147 268 -22 85 -37 99 -97 97 -27 -2 -49 -4 -51 -5z"/>
<path d="M2563 2385 c-12 -8 -27 -40 -38 -77 -30 -109 -77 -190 -166 -283 -78
-82 -82 -70 105 -323 175 -234 198 -256 241 -228 80 52 230 222 302 341 76
127 149 319 160 421 8 71 -6 80 -147 99 -25 3 -70 10 -100 15 -30 5 -75 12
-100 15 -25 3 -70 10 -100 15 -110 19 -135 20 -157 5z"/>
<path d="M1507 1812 c-9 -10 -64 -129 -123 -265 -81 -187 -105 -253 -100 -272
8 -30 51 -51 171 -83 124 -32 140 -34 310 -38 167 -3 253 8 385 46 83 25 103
40 103 76 0 25 -163 458 -193 514 -18 33 -41 38 -105 23 -99 -23 -229 -24
-315 -2 -95 23 -113 23 -133 1z"/>
</g>
</svg>
